<svg width="52" height="53" viewBox="0 0 52 53" fill="none" xmlns="http://www.w3.org/2000/svg">
<g id="Asset 18LAMBDA 1" clip-path="url(#clip0_1833_249)">
<g id="Layer_1-2">
<path id="Vector" d="M25.8847 52.1941C40.1804 52.1941 51.7693 40.6051 51.7693 26.3094C51.7693 12.0137 40.1804 0.424744 25.8847 0.424744C11.589 0.424744 0 12.0137 0 26.3094C0 40.6051 11.589 52.1941 25.8847 52.1941Z" fill="black"/>
<path id="Vector_2" d="M25.8847 1.63592C32.4752 1.63592 38.6713 4.2019 43.3308 8.86321C47.9904 13.5228 50.5581 19.7188 50.5581 26.3094C50.5581 32.8999 47.9922 39.096 43.3308 43.7556C38.6713 48.4152 32.4752 50.9829 25.8847 50.9829C19.2941 50.9829 13.0981 48.4169 8.43847 43.7556C3.77888 39.096 1.21118 32.8999 1.21118 26.3094C1.21118 19.7188 3.77715 13.5228 8.43847 8.86321C13.0981 4.2019 19.2941 1.63592 25.8847 1.63592ZM25.8847 0.424744C11.5893 0.424744 0 12.014 0 26.3094C0 40.6048 11.5893 52.1941 25.8847 52.1941C40.18 52.1941 51.7693 40.6048 51.7693 26.3094C51.7693 12.014 40.1783 0.424744 25.8847 0.424744Z" fill="url(#paint0_linear_1833_249)"/>
<path id="Vector_3" d="M40.8168 40.411H40.8151L40.1143 38.6773L37.884 33.1751L34.6934 25.3007L33.304 21.8713L31.3575 17.0629L29.1566 11.6316C29.0995 11.488 28.9991 11.3686 28.8763 11.2873C28.7534 11.2042 28.6046 11.1575 28.4506 11.1575H23.2806C22.9709 11.1575 22.6924 11.3444 22.5747 11.6316L18.4601 21.8176L17.0725 25.2522L13.977 32.9155L11.6637 38.6531L10.9508 40.4093C10.7484 40.911 11.1169 41.4578 11.6568 41.4578H15.8769L16.088 41.2848L17.4808 40.1411L25.9124 33.2097L35.6727 41.2329L35.7437 41.2882L35.9513 41.4578H40.1109C40.6507 41.4578 41.0192 40.911 40.8168 40.411ZM20.7873 28.9965L22.1975 30.1523L19.4706 32.5089L20.7873 28.9965ZM28.9455 29.5606L26.4107 27.3649L24.8379 26.0049L22.6214 24.086L24.9123 17.9644L25.8622 15.4295L26.8121 17.9626L28.0752 21.3193L29.3244 24.6397L30.6048 28.0483L32.2486 32.4172L28.9455 29.5606Z" fill="url(#paint1_linear_1833_249)"/>
<path id="Vector_4" opacity="0.23" d="M40.1105 41.4578H35.951L35.7433 41.2883L35.6724 41.2329L25.912 33.2097L17.4805 40.1411C18.7176 36.9401 20.2818 33.6907 22.1452 30.4222C22.981 28.9515 23.879 27.4791 24.8375 26.0049L26.4103 27.3649L28.9452 29.5606L32.2482 32.4172L30.6045 28.0483L29.3241 24.6397L28.0748 21.3194C29.1165 19.8971 30.21 18.4783 31.3571 17.0629L33.3037 21.8713L34.6931 25.3007L37.8837 33.1751L40.114 38.6773L40.8147 40.4093H40.8165C41.0189 40.9111 40.6504 41.4578 40.1105 41.4578Z" fill="white"/>
</g>
</g>
<defs>
<linearGradient id="paint0_linear_1833_249" x1="12.2485" y1="4.30398" x2="39.5208" y2="48.3131" gradientUnits="userSpaceOnUse">
<stop stop-color="#FF8C00"/>
<stop offset="1" stop-color="#FF4500"/>
</linearGradient>
<linearGradient id="paint1_linear_1833_249" x1="16.2489" y1="20.1653" x2="32.0392" y2="45.6468" gradientUnits="userSpaceOnUse">
<stop stop-color="#FF8C00"/>
<stop offset="1" stop-color="#FF4500"/>
</linearGradient>
<clipPath id="clip0_1833_249">
<rect width="51.7676" height="51.7676" fill="white" transform="translate(0 0.424744)"/>
</clipPath>
</defs>
</svg>
