<svg width="110" height="17" viewBox="0 0 110 17" fill="none" xmlns="http://www.w3.org/2000/svg">
<path d="M11.8431 12.3031V16.2206H0.220703V0.396545H4.25772V12.3031H11.8431Z" fill="#FF8901"/>
<path d="M32.7327 16.2206H28.3119L26.8166 12.2433L26.6294 11.7453L25.3213 8.26873L24.3147 5.59155L21.939 11.9445L20.3388 16.2206H15.918L22.3055 0.396545H26.3213L28.3849 5.49063L29.9028 9.23815L29.9586 9.37493L32.7327 16.2206Z" fill="#FF8901"/>
<path d="M54.1117 0.396545V16.2206H50.0746V8.77469L46.7892 15.6084H44.132L40.8466 8.77469V16.2206H36.8096V0.396545H40.8864L41.5823 1.92238L41.9926 2.81876L45.4507 10.3961L50.0348 0.396545H54.1117Z" fill="#FF8901"/>
<path d="M71.1873 9.45461C70.7119 8.85304 70.0732 8.39755 69.2618 8.0868C69.8567 7.76411 70.3241 7.3272 70.6721 6.78672C71.012 6.24757 71.1873 5.57296 71.1873 4.75759C71.1873 4.13876 71.0798 3.55843 70.8606 3.02592C70.6442 2.49208 70.3241 2.02862 69.9005 1.63687C69.5951 1.35799 69.2365 1.12294 68.8222 0.934372C68.6562 0.85735 68.4809 0.788296 68.2977 0.725881C67.6549 0.504111 66.9073 0.396545 66.0561 0.396545H58.1865V16.2206H66.7439C67.5434 16.2206 68.2578 16.113 68.8939 15.8966C69.5287 15.6761 70.0732 15.3734 70.5167 14.9736C70.9642 14.5726 71.3082 14.1025 71.5432 13.5501C71.7796 13.0029 71.8951 12.408 71.8951 11.7586C71.8951 10.8251 71.6587 10.0562 71.1873 9.45461ZM62.2435 4.08962H65.8117C66.2446 4.08962 66.5633 4.20515 66.7758 4.43489C66.983 4.66596 67.0919 4.96873 67.0919 5.34986C67.0919 5.73099 66.979 6.02845 66.7559 6.26085C66.5315 6.49324 66.1437 6.60346 65.5886 6.60346H62.2435V4.08962ZM67.4664 12.1517C67.2433 12.4146 66.8515 12.5461 66.3004 12.5461H62.2435V9.76934H66.3004C66.8515 9.76934 67.2433 9.89416 67.4664 10.1452C67.6868 10.3935 67.7983 10.7255 67.7983 11.1278C67.7983 11.5302 67.6868 11.8901 67.4664 12.1517Z" fill="#FF8901"/>
<path d="M90.324 5.2662C90.004 4.30475 89.5365 3.46548 88.9137 2.74439C88.2896 2.01534 87.51 1.44564 86.5725 1.02999C85.6323 0.610348 84.5447 0.396545 83.319 0.396545H75.9727V16.2206H83.319C84.5447 16.2206 85.6323 16.0068 86.5725 15.5925C87.51 15.1728 88.2896 14.6045 88.9137 13.886C89.5365 13.1703 90.004 12.331 90.324 11.3722C90.6401 10.4134 90.7994 9.39087 90.7994 8.31123C90.7994 7.23159 90.6401 6.22898 90.324 5.2662ZM86.4676 9.93268C86.3149 10.4214 86.0798 10.8357 85.7677 11.1889C85.4597 11.5408 85.0732 11.8157 84.6137 12.0123C84.1529 12.2062 83.6217 12.3031 83.0109 12.3031H80.0283V4.33397H83.0109C84.2286 4.33397 85.1489 4.69783 85.7677 5.42954C86.3919 6.16125 86.7026 7.11871 86.7026 8.31123C86.7026 8.90217 86.6229 9.44664 86.4676 9.93268Z" fill="#FF8901"/>
<path d="M109.999 16.2206H105.577L101.581 5.59155L97.604 16.2206H93.1846L99.5748 0.396545H103.592L109.999 16.2206Z" fill="#FF8901"/>
</svg>
